<svg width="385" height="49" viewBox="0 0 385 49" fill="none" xmlns="http://www.w3.org/2000/svg">
<path d="M7.552 48C6.912 48 6.592 47.7653 6.592 47.296C6.592 46.8267 6.86933 46.5707 7.424 46.528L10.304 46.08C11.1573 45.952 11.7333 45.7387 12.032 45.44C12.3307 45.0987 12.48 44.48 12.48 43.584V5.184C12.48 4.58666 12.352 4.16 12.096 3.904C11.84 3.648 11.3067 3.52 10.496 3.52C8.91733 3.52 7.36 4.20266 5.824 5.568C4.288 6.93333 3.28533 9.13066 2.816 12.16L2.496 14.272C2.41067 14.8267 2.112 15.104 1.6 15.104C0.96 15.104 0.682667 14.7413 0.768 14.016L1.344 2.432C1.42933 1.45067 1.81333 0.959999 2.496 0.959999C2.79467 0.959999 3.072 1.04533 3.328 1.216C3.584 1.344 4.01067 1.49333 4.608 1.664C5.248 1.83466 6.25067 1.92 7.616 1.92H21.888C23.2533 1.92 24.2347 1.83466 24.832 1.664C25.472 1.49333 25.92 1.344 26.176 1.216C26.4747 1.04533 26.752 0.959999 27.008 0.959999C27.6907 0.959999 28.0747 1.45067 28.16 2.432L28.736 14.016C28.8213 14.7413 28.544 15.104 27.904 15.104C27.392 15.104 27.0933 14.8267 27.008 14.272L26.688 12.16C26.2613 9.13066 25.28 6.93333 23.744 5.568C22.208 4.20266 20.6293 3.52 19.008 3.52C18.1973 3.52 17.664 3.648 17.408 3.904C17.152 4.16 17.024 4.58666 17.024 5.184V43.584C17.024 44.48 17.1733 45.0987 17.472 45.44C17.8133 45.7387 18.3893 45.952 19.2 46.08L22.08 46.528C22.6347 46.5707 22.912 46.8267 22.912 47.296C22.912 47.7653 22.592 48 21.952 48H7.552ZM31.676 48C31.036 48 30.716 47.7653 30.716 47.296C30.716 46.912 30.9933 46.656 31.548 46.528L33.02 46.272C33.916 46.1013 34.492 45.8667 34.748 45.568C35.0467 45.2693 35.196 44.672 35.196 43.776V6.144C35.196 5.248 35.0467 4.65067 34.748 4.352C34.492 4.05333 33.916 3.81867 33.02 3.648L31.548 3.392C30.9933 3.264 30.716 3.008 30.716 2.624C30.716 2.15466 31.036 1.92 31.676 1.92H43.26C43.9 1.92 44.22 2.15466 44.22 2.624C44.22 3.008 43.9427 3.264 43.388 3.392L41.916 3.648C41.02 3.81867 40.4227 4.05333 40.124 4.352C39.868 4.65067 39.74 5.248 39.74 6.144V43.776C39.74 44.672 39.868 45.2693 40.124 45.568C40.4227 45.8667 41.02 46.1013 41.916 46.272L43.388 46.528C43.9427 46.656 44.22 46.912 44.22 47.296C44.22 47.7653 43.9 48 43.26 48H31.676ZM47.6135 48C46.9735 48 46.6535 47.7653 46.6535 47.296C46.6535 46.912 46.9308 46.656 47.4855 46.528L48.9575 46.272C49.8535 46.1013 50.4295 45.8667 50.6855 45.568C50.9842 45.2693 51.1335 44.672 51.1335 43.776V6.144C51.1335 5.248 50.9842 4.65067 50.6855 4.352C50.4295 4.05333 49.8535 3.81867 48.9575 3.648L47.4855 3.392C46.9308 3.264 46.6535 3.008 46.6535 2.624C46.6535 2.15466 46.9735 1.92 47.6135 1.92H60.9895C63.5068 1.92 65.7255 2.47467 67.6455 3.584C69.5655 4.65067 71.0588 6.144 72.1255 8.064C73.1922 9.984 73.7255 12.2027 73.7255 14.72C73.7255 17.152 73.1922 19.3067 72.1255 21.184C71.0588 23.0613 69.5868 24.5333 67.7095 25.6C65.8322 26.624 63.6562 27.136 61.1815 27.136H56.5735C55.9762 27.136 55.6775 27.4347 55.6775 28.032V43.52C55.6775 44.416 55.8482 45.0347 56.1895 45.376C56.5308 45.6747 57.2988 45.9307 58.4935 46.144L60.8615 46.528C61.3308 46.6133 61.5655 46.848 61.5655 47.232C61.5655 47.744 61.2455 48 60.6055 48H47.6135ZM55.6775 22.016C55.6775 24.3627 57.1068 25.536 59.9655 25.536C62.7388 25.536 64.9148 24.5547 66.4935 22.592C68.1148 20.6293 68.9255 17.9413 68.9255 14.528C68.9255 11.0293 68.1148 8.32 66.4935 6.4C64.8722 4.48 62.5682 3.52 59.5815 3.52C56.9788 3.52 55.6775 4.37333 55.6775 6.08V22.016ZM104.429 48.576C101.272 48.576 98.4983 47.5947 96.109 45.632C93.7623 43.6693 91.9277 40.9173 90.605 37.376C89.325 33.792 88.685 29.568 88.685 24.704C88.685 20.0107 89.389 15.9147 90.797 12.416C92.2477 8.87466 94.1677 6.144 96.557 4.224C98.989 2.26133 101.677 1.28 104.621 1.28C106.37 1.28 107.906 1.45066 109.229 1.792C110.552 2.09066 111.725 2.496 112.749 3.008C113.261 3.30666 113.517 3.75466 113.517 4.352L113.709 14.08C113.709 14.8053 113.453 15.168 112.941 15.168C112.472 15.168 112.173 14.8907 112.045 14.336L111.405 11.968C110.509 8.64 109.464 6.336 108.269 5.056C107.117 3.776 105.73 3.136 104.109 3.136C101.122 3.136 98.6263 4.992 96.621 8.704C94.6583 12.3733 93.677 17.7067 93.677 24.704C93.677 29.4827 94.1677 33.5147 95.149 36.8C96.173 40.0853 97.4743 42.56 99.053 44.224C100.674 45.888 102.381 46.72 104.173 46.72C106.093 46.72 107.629 46.1227 108.781 44.928C109.976 43.7333 110.978 41.4293 111.789 38.016L112.557 34.88C112.685 34.24 113.026 33.9627 113.581 34.048C114.05 34.1333 114.285 34.496 114.285 35.136L114.029 45.504C114.029 46.1013 113.752 46.5493 113.197 46.848C112.173 47.36 110.957 47.7653 109.549 48.064C108.184 48.4053 106.477 48.576 104.429 48.576ZM115.933 48C115.293 48 114.973 47.7867 114.973 47.36C114.973 46.9333 115.272 46.656 115.869 46.528L116.829 46.336C117.682 46.1653 118.322 45.76 118.749 45.12C119.176 44.4373 119.538 43.4987 119.837 42.304L129.757 2.304C129.842 1.87733 129.97 1.6 130.141 1.472C130.354 1.344 130.546 1.28 130.717 1.28C130.93 1.28 131.122 1.344 131.293 1.472C131.506 1.6 131.656 1.87733 131.741 2.304L141.853 42.88C142.152 44.0747 142.493 44.9067 142.877 45.376C143.261 45.8453 143.858 46.1653 144.669 46.336L145.629 46.528C146.226 46.656 146.525 46.9333 146.525 47.36C146.525 47.7867 146.205 48 145.565 48H134.621C134.024 48 133.725 47.7653 133.725 47.296C133.725 46.8267 134.088 46.5707 134.813 46.528L136.029 46.4C136.754 46.3147 137.202 46.08 137.373 45.696C137.586 45.312 137.586 44.6507 137.373 43.712L134.941 33.792C134.685 32.6827 133.981 32.128 132.829 32.128H126.109C125 32.128 124.296 32.6827 123.997 33.792L121.821 42.368C121.181 44.8 121.821 46.144 123.741 46.4L124.701 46.528C125.426 46.656 125.789 46.912 125.789 47.296C125.789 47.7653 125.49 48 124.893 48H115.933ZM125.917 30.208H132.957C133.64 30.208 133.917 29.8453 133.789 29.12L129.693 11.968H129.373L125.085 29.12C124.957 29.8453 125.234 30.208 125.917 30.208ZM146.926 48C146.286 48 145.966 47.7653 145.966 47.296C145.966 46.912 146.243 46.656 146.798 46.528L148.27 46.272C149.166 46.1013 149.742 45.8667 149.998 45.568C150.297 45.2693 150.446 44.672 150.446 43.776V6.144C150.446 5.248 150.297 4.65067 149.998 4.352C149.742 4.05333 149.166 3.81867 148.27 3.648L146.798 3.392C146.243 3.264 145.966 3.008 145.966 2.624C145.966 2.15466 146.286 1.92 146.926 1.92H158.638C159.278 1.92 159.598 2.176 159.598 2.688C159.598 3.072 159.363 3.30666 158.894 3.392L157.166 3.648C156.27 3.776 155.673 4.01066 155.374 4.352C155.118 4.69333 154.99 5.312 154.99 6.208V42.048C154.99 43.584 155.417 44.6933 156.27 45.376C157.166 46.0587 158.275 46.4 159.598 46.4C160.579 46.4 161.582 46.208 162.606 45.824C163.673 45.3973 164.633 44.6293 165.486 43.52C166.339 42.368 166.979 40.704 167.406 38.528L168.238 34.24C168.366 33.6853 168.686 33.408 169.198 33.408C169.795 33.408 170.051 33.7707 169.966 34.496L169.198 46.528C169.113 47.5093 168.579 48 167.598 48H146.926ZM188.617 48.576C185.459 48.576 182.686 47.5947 180.297 45.632C177.95 43.6693 176.115 40.9173 174.793 37.376C173.513 33.792 172.873 29.568 172.873 24.704C172.873 20.0107 173.577 15.9147 174.985 12.416C176.435 8.87466 178.355 6.144 180.745 4.224C183.177 2.26133 185.865 1.28 188.809 1.28C190.558 1.28 192.094 1.45066 193.417 1.792C194.739 2.09066 195.913 2.496 196.937 3.008C197.449 3.30666 197.705 3.75466 197.705 4.352L197.897 14.08C197.897 14.8053 197.641 15.168 197.129 15.168C196.659 15.168 196.361 14.8907 196.233 14.336L195.593 11.968C194.697 8.64 193.651 6.336 192.457 5.056C191.305 3.776 189.918 3.136 188.297 3.136C185.31 3.136 182.814 4.992 180.809 8.704C178.846 12.3733 177.865 17.7067 177.865 24.704C177.865 29.4827 178.355 33.5147 179.337 36.8C180.361 40.0853 181.662 42.56 183.241 44.224C184.862 45.888 186.569 46.72 188.361 46.72C190.281 46.72 191.817 46.1227 192.969 44.928C194.163 43.7333 195.166 41.4293 195.977 38.016L196.745 34.88C196.873 34.24 197.214 33.9627 197.769 34.048C198.238 34.1333 198.473 34.496 198.473 35.136L198.217 45.504C198.217 46.1013 197.939 46.5493 197.385 46.848C196.361 47.36 195.145 47.7653 193.737 48.064C192.371 48.4053 190.665 48.576 188.617 48.576ZM218.663 48.576C216.359 48.576 214.311 48.0427 212.519 46.976C210.769 45.8667 209.404 44.352 208.423 42.432C207.441 40.4693 206.951 38.2293 206.951 35.712V6.144C206.951 5.248 206.801 4.65067 206.503 4.352C206.247 4.05333 205.671 3.81867 204.775 3.648L203.303 3.392C202.748 3.264 202.471 3.008 202.471 2.624C202.471 2.15466 202.791 1.92 203.431 1.92H215.143C215.783 1.92 216.103 2.176 216.103 2.688C216.103 3.072 215.868 3.30666 215.399 3.392L213.671 3.648C212.817 3.776 212.241 4.01066 211.943 4.352C211.644 4.69333 211.495 5.312 211.495 6.208V35.776C211.495 39.0187 212.22 41.536 213.671 43.328C215.121 45.12 217.148 46.016 219.751 46.016C222.396 46.016 224.444 45.12 225.895 43.328C227.345 41.536 228.071 39.0187 228.071 35.776V7.488C228.071 5.184 227.345 3.904 225.895 3.648L224.167 3.392C223.697 3.30666 223.463 3.072 223.463 2.688C223.463 2.176 223.783 1.92 224.423 1.92H233.639C234.279 1.92 234.599 2.15466 234.599 2.624C234.599 3.008 234.321 3.264 233.767 3.392L232.295 3.648C230.844 3.904 230.119 5.16267 230.119 7.424V35.712C230.119 39.5947 229.073 42.7093 226.983 45.056C224.892 47.4027 222.119 48.576 218.663 48.576ZM237.551 48C236.911 48 236.591 47.7653 236.591 47.296C236.591 46.912 236.868 46.656 237.423 46.528L238.895 46.272C239.791 46.1013 240.367 45.8667 240.623 45.568C240.922 45.2693 241.071 44.672 241.071 43.776V6.144C241.071 5.248 240.922 4.65067 240.623 4.352C240.367 4.05333 239.791 3.81867 238.895 3.648L237.423 3.392C236.868 3.264 236.591 3.008 236.591 2.624C236.591 2.15466 236.911 1.92 237.551 1.92H249.263C249.903 1.92 250.223 2.176 250.223 2.688C250.223 3.072 249.988 3.30666 249.519 3.392L247.791 3.648C246.895 3.776 246.298 4.01066 245.999 4.352C245.743 4.69333 245.615 5.312 245.615 6.208V42.048C245.615 43.584 246.042 44.6933 246.895 45.376C247.791 46.0587 248.9 46.4 250.223 46.4C251.204 46.4 252.207 46.208 253.231 45.824C254.298 45.3973 255.258 44.6293 256.111 43.52C256.964 42.368 257.604 40.704 258.031 38.528L258.863 34.24C258.991 33.6853 259.311 33.408 259.823 33.408C260.42 33.408 260.676 33.7707 260.591 34.496L259.823 46.528C259.738 47.5093 259.204 48 258.223 48H237.551ZM261.62 48C260.98 48 260.66 47.7867 260.66 47.36C260.66 46.9333 260.959 46.656 261.556 46.528L262.517 46.336C263.37 46.1653 264.01 45.76 264.437 45.12C264.863 44.4373 265.226 43.4987 265.525 42.304L275.445 2.304C275.53 1.87733 275.658 1.6 275.829 1.472C276.042 1.344 276.234 1.28 276.405 1.28C276.618 1.28 276.81 1.344 276.981 1.472C277.194 1.6 277.343 1.87733 277.429 2.304L287.541 42.88C287.839 44.0747 288.181 44.9067 288.565 45.376C288.949 45.8453 289.546 46.1653 290.357 46.336L291.317 46.528C291.914 46.656 292.213 46.9333 292.213 47.36C292.213 47.7867 291.893 48 291.253 48H280.309C279.711 48 279.413 47.7653 279.413 47.296C279.413 46.8267 279.775 46.5707 280.501 46.528L281.717 46.4C282.442 46.3147 282.89 46.08 283.061 45.696C283.274 45.312 283.274 44.6507 283.061 43.712L280.628 33.792C280.373 32.6827 279.669 32.128 278.517 32.128H271.797C270.687 32.128 269.983 32.6827 269.685 33.792L267.509 42.368C266.869 44.8 267.509 46.144 269.429 46.4L270.389 46.528C271.114 46.656 271.477 46.912 271.477 47.296C271.477 47.7653 271.178 48 270.581 48H261.62ZM271.605 30.208H278.645C279.327 30.208 279.605 29.8453 279.477 29.12L275.381 11.968H275.061L270.773 29.12C270.645 29.8453 270.922 30.208 271.605 30.208ZM295.927 48C295.287 48 294.967 47.7653 294.967 47.296C294.967 46.8267 295.244 46.5707 295.799 46.528L298.679 46.08C299.532 45.952 300.108 45.7387 300.407 45.44C300.706 45.0987 300.855 44.48 300.855 43.584V5.184C300.855 4.58666 300.727 4.16 300.471 3.904C300.215 3.648 299.682 3.52 298.871 3.52C297.292 3.52 295.735 4.20266 294.199 5.568C292.663 6.93333 291.66 9.13066 291.191 12.16L290.871 14.272C290.786 14.8267 290.487 15.104 289.975 15.104C289.335 15.104 289.058 14.7413 289.143 14.016L289.719 2.432C289.804 1.45067 290.188 0.959999 290.871 0.959999C291.17 0.959999 291.447 1.04533 291.703 1.216C291.959 1.344 292.386 1.49333 292.983 1.664C293.623 1.83466 294.626 1.92 295.991 1.92H310.263C311.628 1.92 312.61 1.83466 313.207 1.664C313.847 1.49333 314.295 1.344 314.551 1.216C314.85 1.04533 315.127 0.959999 315.383 0.959999C316.066 0.959999 316.45 1.45067 316.535 2.432L317.111 14.016C317.196 14.7413 316.919 15.104 316.279 15.104C315.767 15.104 315.468 14.8267 315.383 14.272L315.063 12.16C314.636 9.13066 313.655 6.93333 312.119 5.568C310.583 4.20266 309.004 3.52 307.383 3.52C306.572 3.52 306.039 3.648 305.783 3.904C305.527 4.16 305.399 4.58666 305.399 5.184V43.584C305.399 44.48 305.548 45.0987 305.847 45.44C306.188 45.7387 306.764 45.952 307.575 46.08L310.455 46.528C311.01 46.5707 311.287 46.8267 311.287 47.296C311.287 47.7653 310.967 48 310.327 48H295.927ZM334.405 48.576C332.357 48.576 330.437 47.9787 328.645 46.784C326.853 45.5467 325.274 43.8613 323.909 41.728C322.586 39.5947 321.541 37.0987 320.773 34.24C320.048 31.3387 319.685 28.224 319.685 24.896C319.685 21.568 320.048 18.4747 320.773 15.616C321.541 12.7573 322.586 10.2613 323.909 8.128C325.274 5.952 326.853 4.26667 328.645 3.072C330.437 1.87733 332.357 1.28 334.405 1.28C336.453 1.28 338.352 1.87733 340.101 3.072C341.893 4.26667 343.472 5.952 344.837 8.128C346.202 10.2613 347.248 12.7573 347.973 15.616C348.741 18.4747 349.125 21.568 349.125 24.896C349.125 28.224 348.741 31.3387 347.973 34.24C347.248 37.0987 346.202 39.5947 344.837 41.728C343.472 43.8613 341.893 45.5467 340.101 46.784C338.352 47.9787 336.453 48.576 334.405 48.576ZM334.405 46.848C337.434 46.848 339.802 45.0347 341.509 41.408C343.216 37.7813 344.069 32.2773 344.069 24.896C344.069 17.5147 343.216 12.032 341.509 8.448C339.802 4.82133 337.434 3.008 334.405 3.008C331.418 3.008 329.05 4.82133 327.301 8.448C325.594 12.032 324.741 17.5147 324.741 24.896C324.741 32.2773 325.594 37.7813 327.301 41.408C329.05 45.0347 331.418 46.848 334.405 46.848ZM379.863 48.576C376.151 48.576 373.783 46.144 372.759 41.28L371.287 34.176C370.817 31.872 370.284 30.1227 369.687 28.928C369.132 27.7333 368.343 26.9227 367.319 26.496C366.337 26.0693 364.972 25.856 363.223 25.856C362.625 25.856 362.156 26.0267 361.815 26.368C361.473 26.6667 361.303 27.0507 361.303 27.52V43.52C361.303 44.416 361.473 45.0347 361.815 45.376C362.156 45.6747 362.924 45.9307 364.119 46.144L366.487 46.528C366.956 46.6133 367.191 46.848 367.191 47.232C367.191 47.744 366.871 48 366.231 48H353.239C352.599 48 352.279 47.7653 352.279 47.296C352.279 46.912 352.556 46.656 353.111 46.528L354.583 46.272C355.479 46.1013 356.055 45.8667 356.311 45.568C356.609 45.2693 356.759 44.672 356.759 43.776V6.144C356.759 5.248 356.609 4.65067 356.311 4.352C356.055 4.05333 355.479 3.81867 354.583 3.648L353.111 3.392C352.556 3.264 352.279 3.008 352.279 2.624C352.279 2.15466 352.599 1.92 353.239 1.92H366.231C368.748 1.92 370.988 2.41066 372.951 3.392C374.913 4.37333 376.449 5.73867 377.559 7.488C378.668 9.19466 379.223 11.1787 379.223 13.44C379.223 16.128 378.412 18.56 376.791 20.736C375.169 22.8693 373.121 24.384 370.647 25.28C370.348 25.3653 370.177 25.5147 370.135 25.728C370.135 25.8987 370.284 26.048 370.583 26.176C371.948 26.816 373.015 27.712 373.783 28.864C374.593 30.016 375.212 31.552 375.639 33.472L377.047 40C377.516 42.2187 378.071 43.7973 378.711 44.736C379.351 45.6747 380.161 46.144 381.143 46.144C381.484 46.144 381.783 46.1013 382.039 46.016C382.337 45.888 382.7 45.6747 383.127 45.376C383.468 45.1627 383.788 45.12 384.087 45.248C384.385 45.3333 384.535 45.5467 384.535 45.888C384.535 46.6133 384.065 47.2533 383.127 47.808C382.188 48.32 381.1 48.576 379.863 48.576ZM365.591 24.256C368.492 24.256 370.689 23.296 372.183 21.376C373.676 19.4133 374.423 16.8107 374.423 13.568C374.423 10.4107 373.548 7.95733 371.799 6.208C370.092 4.416 367.724 3.52 364.695 3.52C362.433 3.52 361.303 4.37333 361.303 6.08V20.736C361.303 23.0827 362.732 24.256 365.591 24.256Z" fill="#032A38"/>
</svg>
